<svg width="159" height="42" viewBox="0 0 159 42" fill="none" xmlns="http://www.w3.org/2000/svg">
<path d="M7.37425 10.696V12H0.87025V0.535999H2.41425V10.696H7.37425ZM13.0911 10.768C13.5658 10.768 13.9898 10.688 14.3631 10.528C14.7365 10.368 15.0511 10.144 15.3071 9.856C15.5685 9.568 15.7658 9.224 15.8991 8.824C16.0378 8.424 16.1071 7.984 16.1071 7.504V0.535999H17.6511V7.504C17.6511 8.16533 17.5445 8.77867 17.3311 9.344C17.1231 9.90933 16.8218 10.4 16.4271 10.816C16.0378 11.2267 15.5605 11.5493 14.9951 11.784C14.4298 12.0187 13.7951 12.136 13.0911 12.136C12.3871 12.136 11.7525 12.0187 11.1871 11.784C10.6218 11.5493 10.1418 11.2267 9.74713 10.816C9.35246 10.4 9.04846 9.90933 8.83513 9.344C8.62713 8.77867 8.52313 8.16533 8.52313 7.504V0.535999H10.0671V7.496C10.0671 7.976 10.1338 8.416 10.2671 8.816C10.4058 9.216 10.6031 9.56 10.8591 9.848C11.1205 10.136 11.4378 10.3627 11.8111 10.528C12.1898 10.688 12.6165 10.768 13.0911 10.768ZM29.1768 12H27.6408C27.5234 12 27.4301 11.9707 27.3608 11.912C27.2968 11.848 27.2434 11.7787 27.2008 11.704L24.1288 6.888C24.0861 7.016 24.0381 7.12533 23.9848 7.216L20.9928 11.704C20.9394 11.7787 20.8808 11.848 20.8168 11.912C20.7581 11.9707 20.6754 12 20.5688 12H19.1288L23.0728 6.112L19.2888 0.535999H20.8328C20.9448 0.535999 21.0274 0.554666 21.0807 0.591999C21.1341 0.629333 21.1821 0.682666 21.2248 0.752L24.2168 5.344C24.2541 5.232 24.3101 5.10933 24.3848 4.976L27.2088 0.783999C27.2514 0.709333 27.3021 0.650667 27.3608 0.608C27.4194 0.559999 27.4888 0.535999 27.5688 0.535999H29.0488L25.2488 6.04L29.1768 12ZM32.3754 12H30.8234V0.535999H32.3754V12ZM38.4838 6.088C38.9318 6.088 39.3264 6.03467 39.6678 5.928C40.0144 5.816 40.3024 5.66133 40.5318 5.464C40.7664 5.26133 40.9424 5.02133 41.0598 4.744C41.1771 4.46667 41.2358 4.16 41.2358 3.824C41.2358 3.14133 41.0118 2.62667 40.5638 2.28C40.1158 1.93333 39.4438 1.76 38.5477 1.76H36.8518V6.088H38.4838ZM43.7798 12H42.4038C42.1211 12 41.9131 11.8907 41.7798 11.672L38.8038 7.576C38.7131 7.448 38.6144 7.35733 38.5078 7.304C38.4064 7.24533 38.2464 7.216 38.0278 7.216H36.8518V12H35.3078V0.535999H38.5477C39.2731 0.535999 39.8998 0.610666 40.4278 0.759999C40.9558 0.904 41.3904 1.11467 41.7318 1.392C42.0784 1.66933 42.3344 2.00533 42.4998 2.4C42.6651 2.78933 42.7478 3.22667 42.7478 3.712C42.7478 4.11733 42.6838 4.496 42.5558 4.848C42.4278 5.2 42.2411 5.51733 41.9958 5.8C41.7558 6.07733 41.4598 6.31467 41.1078 6.512C40.7611 6.70933 40.3664 6.85867 39.9238 6.96C40.1211 7.072 40.2918 7.23467 40.4358 7.448L43.7798 12ZM55.8216 6.272C55.8216 7.13067 55.6856 7.92 55.4136 8.64C55.1416 9.35467 54.7576 9.97067 54.2616 10.488C53.7656 11.0053 53.1683 11.408 52.4696 11.696C51.7763 11.9787 51.0083 12.12 50.1656 12.12C49.323 12.12 48.555 11.9787 47.8616 11.696C47.1683 11.408 46.5736 11.0053 46.0776 10.488C45.5816 9.97067 45.1976 9.35467 44.9256 8.64C44.6536 7.92 44.5176 7.13067 44.5176 6.272C44.5176 5.41333 44.6536 4.62667 44.9256 3.912C45.1976 3.192 45.5816 2.57333 46.0776 2.056C46.5736 1.53333 47.1683 1.128 47.8616 0.839999C48.555 0.551999 49.323 0.407999 50.1656 0.407999C51.0083 0.407999 51.7763 0.551999 52.4696 0.839999C53.1683 1.128 53.7656 1.53333 54.2616 2.056C54.7576 2.57333 55.1416 3.192 55.4136 3.912C55.6856 4.62667 55.8216 5.41333 55.8216 6.272ZM54.2296 6.272C54.2296 5.568 54.1336 4.936 53.9416 4.376C53.7496 3.816 53.4776 3.344 53.1256 2.96C52.7736 2.57067 52.347 2.272 51.8456 2.064C51.3443 1.856 50.7843 1.752 50.1656 1.752C49.5523 1.752 48.995 1.856 48.4936 2.064C47.9923 2.272 47.563 2.57067 47.2056 2.96C46.8536 3.344 46.5816 3.816 46.3896 4.376C46.1976 4.936 46.1016 5.568 46.1016 6.272C46.1016 6.976 46.1976 7.608 46.3896 8.168C46.5816 8.72267 46.8536 9.19467 47.2056 9.584C47.563 9.968 47.9923 10.264 48.4936 10.472C48.995 10.6747 49.5523 10.776 50.1656 10.776C50.7843 10.776 51.3443 10.6747 51.8456 10.472C52.347 10.264 52.7736 9.968 53.1256 9.584C53.4776 9.19467 53.7496 8.72267 53.9416 8.168C54.1336 7.608 54.2296 6.976 54.2296 6.272ZM62.4661 10.768C62.9408 10.768 63.3648 10.688 63.7381 10.528C64.1115 10.368 64.4261 10.144 64.6821 9.856C64.9435 9.568 65.1408 9.224 65.2741 8.824C65.4128 8.424 65.4821 7.984 65.4821 7.504V0.535999H67.0261V7.504C67.0261 8.16533 66.9195 8.77867 66.7061 9.344C66.4981 9.90933 66.1968 10.4 65.8021 10.816C65.4128 11.2267 64.9355 11.5493 64.3701 11.784C63.8048 12.0187 63.1701 12.136 62.4661 12.136C61.7621 12.136 61.1275 12.0187 60.5621 11.784C59.9968 11.5493 59.5168 11.2267 59.1221 10.816C58.7275 10.4 58.4235 9.90933 58.2101 9.344C58.0021 8.77867 57.8981 8.16533 57.8981 7.504V0.535999H59.4421V7.496C59.4421 7.976 59.5088 8.416 59.6421 8.816C59.7808 9.216 59.9781 9.56 60.2341 9.848C60.4955 10.136 60.8128 10.3627 61.1861 10.528C61.5648 10.688 61.9915 10.768 62.4661 10.768ZM75.6718 2.328C75.6238 2.408 75.5704 2.46933 75.5118 2.512C75.4584 2.54933 75.3918 2.568 75.3118 2.568C75.2211 2.568 75.1144 2.52267 74.9918 2.432C74.8691 2.34133 74.7144 2.24267 74.5278 2.136C74.3464 2.024 74.1251 1.92267 73.8638 1.832C73.6078 1.74133 73.2958 1.696 72.9278 1.696C72.5811 1.696 72.2744 1.744 72.0078 1.84C71.7464 1.93067 71.5251 2.056 71.3438 2.216C71.1678 2.376 71.0344 2.56533 70.9438 2.784C70.8531 2.99733 70.8078 3.22933 70.8078 3.48C70.8078 3.8 70.8851 4.06667 71.0398 4.28C71.1998 4.488 71.4078 4.66667 71.6638 4.816C71.9251 4.96533 72.2184 5.096 72.5438 5.208C72.8744 5.31467 73.2104 5.42667 73.5518 5.544C73.8984 5.66133 74.2344 5.79467 74.5598 5.944C74.8904 6.088 75.1838 6.272 75.4398 6.496C75.7011 6.72 75.9091 6.99467 76.0638 7.32C76.2238 7.64533 76.3038 8.04533 76.3038 8.52C76.3038 9.02133 76.2184 9.49333 76.0478 9.936C75.8771 10.3733 75.6264 10.7547 75.2958 11.08C74.9704 11.4053 74.5678 11.6613 74.0878 11.848C73.6131 12.0347 73.0718 12.128 72.4638 12.128C71.7171 12.128 71.0398 11.9947 70.4318 11.728C69.8238 11.456 69.3037 11.0907 68.8717 10.632L69.3198 9.896C69.3624 9.83733 69.4131 9.78933 69.4718 9.752C69.5358 9.70933 69.6051 9.688 69.6798 9.688C69.7491 9.688 69.8264 9.71733 69.9118 9.776C70.0024 9.82933 70.1038 9.89867 70.2158 9.984C70.3278 10.0693 70.4558 10.1627 70.5998 10.264C70.7438 10.3653 70.9064 10.4587 71.0878 10.544C71.2744 10.6293 71.4851 10.7013 71.7198 10.76C71.9544 10.8133 72.2184 10.84 72.5118 10.84C72.8798 10.84 73.2078 10.7893 73.4958 10.688C73.7838 10.5867 74.0264 10.4453 74.2238 10.264C74.4264 10.0773 74.5811 9.856 74.6878 9.6C74.7944 9.344 74.8478 9.05867 74.8478 8.744C74.8478 8.39733 74.7678 8.11467 74.6078 7.896C74.4531 7.672 74.2478 7.48533 73.9918 7.336C73.7358 7.18667 73.4424 7.06133 73.1118 6.96C72.7811 6.85333 72.4451 6.74667 72.1038 6.64C71.7624 6.528 71.4264 6.4 71.0958 6.256C70.7651 6.112 70.4718 5.92533 70.2158 5.696C69.9598 5.46667 69.7518 5.18133 69.5918 4.84C69.4371 4.49333 69.3598 4.06667 69.3598 3.56C69.3598 3.15467 69.4371 2.76267 69.5918 2.384C69.7518 2.00533 69.9811 1.66933 70.2798 1.376C70.5838 1.08267 70.9544 0.848 71.3918 0.672C71.8344 0.495999 72.3411 0.407999 72.9118 0.407999C73.5518 0.407999 74.1331 0.509333 74.6558 0.712C75.1838 0.914666 75.6478 1.208 76.0478 1.592L75.6718 2.328ZM84.989 6.352C84.4237 6.65067 83.997 7.01333 83.709 7.44C83.4263 7.86667 83.285 8.33067 83.285 8.832C83.285 9.17867 83.349 9.48533 83.477 9.752C83.605 10.0133 83.773 10.2347 83.981 10.416C84.189 10.5973 84.4263 10.736 84.693 10.832C84.9597 10.9227 85.2317 10.968 85.509 10.968C86.1063 10.968 86.6423 10.8587 87.117 10.64C87.597 10.4213 88.0157 10.128 88.373 9.76L84.989 6.352ZM92.381 12H90.997C90.8423 12 90.717 11.9813 90.621 11.944C90.525 11.9067 90.421 11.8293 90.309 11.712L89.149 10.544C88.6477 11.0293 88.069 11.416 87.413 11.704C86.7623 11.9867 86.045 12.128 85.261 12.128C84.8343 12.128 84.4157 12.056 84.005 11.912C83.5997 11.768 83.2343 11.56 82.909 11.288C82.5837 11.0107 82.3223 10.6747 82.125 10.28C81.9277 9.88533 81.829 9.44 81.829 8.944C81.829 8.57067 81.8903 8.21867 82.013 7.888C82.141 7.552 82.317 7.24267 82.541 6.96C82.765 6.67733 83.029 6.424 83.333 6.2C83.637 5.976 83.9703 5.784 84.333 5.624C84.0077 5.208 83.7677 4.808 83.613 4.424C83.4583 4.03467 83.381 3.632 83.381 3.216C83.381 2.82667 83.4503 2.46133 83.589 2.12C83.733 1.77867 83.9383 1.48267 84.205 1.232C84.4717 0.976 84.7943 0.775999 85.173 0.631999C85.557 0.482666 85.9863 0.407999 86.461 0.407999C86.8823 0.407999 87.2663 0.477332 87.613 0.615999C87.9597 0.749332 88.2583 0.927999 88.509 1.152C88.7597 1.376 88.957 1.63733 89.101 1.936C89.2503 2.22933 89.3357 2.536 89.357 2.856L88.469 3.032C88.293 3.07467 88.1623 2.992 88.077 2.784C88.0397 2.64533 87.9783 2.50133 87.893 2.352C87.813 2.20267 87.7063 2.06667 87.573 1.944C87.445 1.82133 87.2877 1.72 87.101 1.64C86.9197 1.56 86.7063 1.52 86.461 1.52C86.1943 1.52 85.9517 1.56267 85.733 1.648C85.5197 1.73333 85.3357 1.85333 85.181 2.008C85.0317 2.15733 84.917 2.336 84.837 2.544C84.757 2.74667 84.717 2.968 84.717 3.208C84.717 3.39467 84.7383 3.57333 84.781 3.744C84.8237 3.91467 84.8903 4.088 84.981 4.264C85.077 4.44 85.197 4.61867 85.341 4.8C85.485 4.98133 85.6583 5.17333 85.861 5.376L89.157 8.728C89.3597 8.36533 89.5223 7.98933 89.645 7.6C89.7677 7.20533 89.8477 6.81333 89.885 6.424C89.8957 6.32267 89.9277 6.24267 89.981 6.184C90.0343 6.12533 90.109 6.096 90.205 6.096H91.077C91.0717 6.70933 90.9757 7.312 90.789 7.904C90.6023 8.49067 90.333 9.04267 89.981 9.56L92.381 12ZM105.341 1.84H101.629V12H100.085V1.84H96.365V0.535999H105.341V1.84ZM110.218 6.088C110.666 6.088 111.061 6.03467 111.402 5.928C111.749 5.816 112.037 5.66133 112.266 5.464C112.501 5.26133 112.677 5.02133 112.794 4.744C112.911 4.46667 112.97 4.16 112.97 3.824C112.97 3.14133 112.746 2.62667 112.298 2.28C111.85 1.93333 111.178 1.76 110.282 1.76H108.586V6.088H110.218ZM115.514 12H114.138C113.855 12 113.647 11.8907 113.514 11.672L110.538 7.576C110.447 7.448 110.349 7.35733 110.242 7.304C110.141 7.24533 109.981 7.216 109.762 7.216H108.586V12H107.042V0.535999H110.282C111.007 0.535999 111.634 0.610666 112.162 0.759999C112.69 0.904 113.125 1.11467 113.466 1.392C113.813 1.66933 114.069 2.00533 114.234 2.4C114.399 2.78933 114.482 3.22667 114.482 3.712C114.482 4.11733 114.418 4.496 114.29 4.848C114.162 5.2 113.975 5.51733 113.73 5.8C113.49 6.07733 113.194 6.31467 112.842 6.512C112.495 6.70933 112.101 6.85867 111.658 6.96C111.855 7.072 112.026 7.23467 112.17 7.448L115.514 12ZM124.145 10.736L124.137 12H117.073V0.535999H124.137V1.8H118.625V5.608H123.089V6.824H118.625V10.736H124.145ZM135.596 0.535999V12H134.82C134.697 12 134.593 11.9787 134.508 11.936C134.428 11.8933 134.348 11.8213 134.268 11.72L127.636 3.08C127.646 3.21333 127.654 3.344 127.66 3.472C127.665 3.6 127.668 3.72 127.668 3.832V12H126.308V0.535999H127.108C127.177 0.535999 127.236 0.541333 127.284 0.551999C127.332 0.557333 127.374 0.570666 127.412 0.591999C127.449 0.607999 127.486 0.634666 127.524 0.672C127.561 0.704 127.601 0.746666 127.644 0.799999L134.276 9.432C134.265 9.29333 134.254 9.16 134.244 9.032C134.238 8.89867 134.236 8.77333 134.236 8.656V0.535999H135.596ZM148.463 6.272C148.463 7.13067 148.327 7.912 148.055 8.616C147.783 9.32 147.399 9.92267 146.903 10.424C146.407 10.9253 145.809 11.3147 145.111 11.592C144.417 11.864 143.649 12 142.807 12H138.527V0.535999H142.807C143.649 0.535999 144.417 0.674666 145.111 0.952C145.809 1.224 146.407 1.61333 146.903 2.12C147.399 2.62133 147.783 3.224 148.055 3.928C148.327 4.632 148.463 5.41333 148.463 6.272ZM146.871 6.272C146.871 5.568 146.775 4.93867 146.583 4.384C146.391 3.82933 146.119 3.36 145.767 2.976C145.415 2.592 144.988 2.29867 144.487 2.096C143.985 1.89333 143.425 1.792 142.807 1.792H140.079V10.744H142.807C143.425 10.744 143.985 10.6427 144.487 10.44C144.988 10.2373 145.415 9.94667 145.767 9.568C146.119 9.184 146.391 8.71467 146.583 8.16C146.775 7.60533 146.871 6.976 146.871 6.272ZM154.377 7.432V12H152.825V7.432L148.625 0.535999H149.985C150.124 0.535999 150.233 0.570666 150.313 0.639999C150.393 0.703999 150.463 0.789333 150.521 0.896L153.145 5.352C153.241 5.53867 153.329 5.71467 153.409 5.88C153.489 6.04 153.559 6.20267 153.617 6.368C153.676 6.20267 153.743 6.04 153.817 5.88C153.892 5.71467 153.975 5.53867 154.065 5.352L156.681 0.896C156.729 0.805333 156.796 0.722666 156.881 0.648C156.967 0.573333 157.076 0.535999 157.209 0.535999H158.577L154.377 7.432Z" fill="white"/>
<path d="M18.4047 34.448L16.2927 28.676C16.1887 28.42 16.0807 28.116 15.9687 27.764C15.8567 27.412 15.7447 27.032 15.6327 26.624C15.5287 27.032 15.4207 27.416 15.3087 27.776C15.1967 28.128 15.0887 28.436 14.9847 28.7L12.8847 34.448H18.4047ZM24.1047 41H21.6087C21.3287 41 21.1007 40.932 20.9247 40.796C20.7487 40.652 20.6167 40.476 20.5287 40.268L19.2327 36.728H12.0447L10.7487 40.268C10.6847 40.452 10.5607 40.62 10.3767 40.772C10.1927 40.924 9.96469 41 9.69269 41H7.17269L14.0007 23.648H17.2887L24.1047 41ZM37.3011 36.908C37.4771 36.908 37.6331 36.976 37.7691 37.112L39.0411 38.492C38.3371 39.364 37.4691 40.032 36.4371 40.496C35.4131 40.96 34.1811 41.192 32.7411 41.192C31.4531 41.192 30.2931 40.972 29.2611 40.532C28.2371 40.092 27.3611 39.48 26.6331 38.696C25.9051 37.912 25.3451 36.976 24.9531 35.888C24.5691 34.8 24.3771 33.612 24.3771 32.324C24.3771 31.02 24.5851 29.828 25.0011 28.748C25.4171 27.66 26.0011 26.724 26.7531 25.94C27.5131 25.156 28.4171 24.548 29.4651 24.116C30.5131 23.676 31.6731 23.456 32.9451 23.456C34.2091 23.456 35.3291 23.664 36.3051 24.08C37.2891 24.496 38.1251 25.04 38.8131 25.712L37.7331 27.212C37.6691 27.308 37.5851 27.392 37.4811 27.464C37.3851 27.536 37.2491 27.572 37.0731 27.572C36.9531 27.572 36.8291 27.54 36.7011 27.476C36.5731 27.404 36.4331 27.32 36.2811 27.224C36.1291 27.12 35.9531 27.008 35.7531 26.888C35.5531 26.768 35.3211 26.66 35.0571 26.564C34.7931 26.46 34.4851 26.376 34.1331 26.312C33.7891 26.24 33.3891 26.204 32.9331 26.204C32.1571 26.204 31.4451 26.344 30.7971 26.624C30.1571 26.896 29.6051 27.296 29.1411 27.824C28.6771 28.344 28.3171 28.984 28.0611 29.744C27.8051 30.496 27.6771 31.356 27.6771 32.324C27.6771 33.3 27.8131 34.168 28.0851 34.928C28.3651 35.688 28.7411 36.328 29.2131 36.848C29.6851 37.368 30.2411 37.768 30.8811 38.048C31.5211 38.32 32.2091 38.456 32.9451 38.456C33.3851 38.456 33.7811 38.432 34.1331 38.384C34.4931 38.336 34.8211 38.26 35.1171 38.156C35.4211 38.052 35.7051 37.92 35.9691 37.76C36.2411 37.592 36.5091 37.388 36.7731 37.148C36.8531 37.076 36.9371 37.02 37.0251 36.98C37.1131 36.932 37.2051 36.908 37.3011 36.908ZM52.7933 36.908C52.9693 36.908 53.1253 36.976 53.2613 37.112L54.5333 38.492C53.8293 39.364 52.9613 40.032 51.9293 40.496C50.9053 40.96 49.6733 41.192 48.2333 41.192C46.9453 41.192 45.7853 40.972 44.7533 40.532C43.7293 40.092 42.8533 39.48 42.1253 38.696C41.3973 37.912 40.8373 36.976 40.4453 35.888C40.0613 34.8 39.8693 33.612 39.8693 32.324C39.8693 31.02 40.0773 29.828 40.4933 28.748C40.9093 27.66 41.4933 26.724 42.2453 25.94C43.0053 25.156 43.9093 24.548 44.9573 24.116C46.0053 23.676 47.1653 23.456 48.4373 23.456C49.7013 23.456 50.8213 23.664 51.7973 24.08C52.7813 24.496 53.6173 25.04 54.3053 25.712L53.2253 27.212C53.1613 27.308 53.0773 27.392 52.9733 27.464C52.8773 27.536 52.7413 27.572 52.5653 27.572C52.4453 27.572 52.3213 27.54 52.1933 27.476C52.0653 27.404 51.9253 27.32 51.7733 27.224C51.6213 27.12 51.4453 27.008 51.2453 26.888C51.0453 26.768 50.8133 26.66 50.5493 26.564C50.2853 26.46 49.9773 26.376 49.6253 26.312C49.2813 26.24 48.8813 26.204 48.4253 26.204C47.6493 26.204 46.9373 26.344 46.2893 26.624C45.6493 26.896 45.0973 27.296 44.6333 27.824C44.1693 28.344 43.8093 28.984 43.5533 29.744C43.2973 30.496 43.1693 31.356 43.1693 32.324C43.1693 33.3 43.3053 34.168 43.5773 34.928C43.8573 35.688 44.2333 36.328 44.7053 36.848C45.1773 37.368 45.7333 37.768 46.3733 38.048C47.0133 38.32 47.7013 38.456 48.4373 38.456C48.8773 38.456 49.2733 38.432 49.6253 38.384C49.9853 38.336 50.3133 38.26 50.6093 38.156C50.9133 38.052 51.1973 37.92 51.4613 37.76C51.7333 37.592 52.0013 37.388 52.2653 37.148C52.3453 37.076 52.4293 37.02 52.5173 36.98C52.6053 36.932 52.6973 36.908 52.7933 36.908ZM59.9845 26.216V31.028H66.0565V33.512H59.9845V38.42H67.6885V41H56.7445V23.648H67.6885V26.216H59.9845ZM79.7892 26.804C79.6932 26.972 79.5892 27.096 79.4772 27.176C79.3732 27.248 79.2412 27.284 79.0812 27.284C78.9132 27.284 78.7292 27.224 78.5292 27.104C78.3372 26.976 78.1052 26.836 77.8332 26.684C77.5612 26.532 77.2412 26.396 76.8732 26.276C76.5132 26.148 76.0852 26.084 75.5892 26.084C75.1412 26.084 74.7492 26.14 74.4132 26.252C74.0772 26.356 73.7932 26.504 73.5612 26.696C73.3372 26.888 73.1692 27.12 73.0572 27.392C72.9452 27.656 72.8892 27.948 72.8892 28.268C72.8892 28.676 73.0012 29.016 73.2252 29.288C73.4572 29.56 73.7612 29.792 74.1372 29.984C74.5132 30.176 74.9412 30.348 75.4212 30.5C75.9012 30.652 76.3932 30.816 76.8972 30.992C77.4012 31.16 77.8932 31.36 78.3732 31.592C78.8532 31.816 79.2812 32.104 79.6572 32.456C80.0332 32.8 80.3332 33.224 80.5572 33.728C80.7892 34.232 80.9052 34.844 80.9052 35.564C80.9052 36.348 80.7692 37.084 80.4972 37.772C80.2332 38.452 79.8412 39.048 79.3212 39.56C78.8092 40.064 78.1812 40.464 77.4372 40.76C76.6932 41.048 75.8412 41.192 74.8812 41.192C74.3292 41.192 73.7852 41.136 73.2492 41.024C72.7132 40.92 72.1972 40.768 71.7012 40.568C71.2132 40.368 70.7532 40.128 70.3212 39.848C69.8892 39.568 69.5052 39.256 69.1692 38.912L70.1172 37.364C70.1972 37.252 70.3012 37.16 70.4292 37.088C70.5572 37.008 70.6932 36.968 70.8372 36.968C71.0372 36.968 71.2532 37.052 71.4852 37.22C71.7172 37.38 71.9932 37.56 72.3132 37.76C72.6332 37.96 73.0052 38.144 73.4292 38.312C73.8612 38.472 74.3772 38.552 74.9772 38.552C75.8972 38.552 76.6092 38.336 77.1132 37.904C77.6172 37.464 77.8692 36.836 77.8692 36.02C77.8692 35.564 77.7532 35.192 77.5212 34.904C77.2972 34.616 76.9972 34.376 76.6212 34.184C76.2452 33.984 75.8172 33.816 75.3372 33.68C74.8572 33.544 74.3692 33.396 73.8732 33.236C73.3772 33.076 72.8892 32.884 72.4092 32.66C71.9292 32.436 71.5012 32.144 71.1252 31.784C70.7492 31.424 70.4452 30.976 70.2132 30.44C69.9892 29.896 69.8772 29.228 69.8772 28.436C69.8772 27.804 70.0012 27.188 70.2492 26.588C70.5052 25.988 70.8732 25.456 71.3532 24.992C71.8332 24.528 72.4252 24.156 73.1292 23.876C73.8332 23.596 74.6412 23.456 75.5532 23.456C76.5772 23.456 77.5212 23.616 78.3852 23.936C79.2492 24.256 79.9852 24.704 80.5932 25.28L79.7892 26.804ZM100.269 32.324C100.269 33.596 100.057 34.776 99.6331 35.864C99.2171 36.944 98.6251 37.88 97.8571 38.672C97.0891 39.464 96.1651 40.084 95.0851 40.532C94.0051 40.972 92.8051 41.192 91.4851 41.192C90.1731 41.192 88.9771 40.972 87.8971 40.532C86.8171 40.084 85.8891 39.464 85.1131 38.672C84.3451 37.88 83.7491 36.944 83.3251 35.864C82.9011 34.776 82.6891 33.596 82.6891 32.324C82.6891 31.052 82.9011 29.876 83.3251 28.796C83.7491 27.708 84.3451 26.768 85.1131 25.976C85.8891 25.184 86.8171 24.568 87.8971 24.128C88.9771 23.68 90.1731 23.456 91.4851 23.456C92.3651 23.456 93.1931 23.56 93.9691 23.768C94.7451 23.968 95.4571 24.256 96.1051 24.632C96.7531 25 97.3331 25.452 97.8451 25.988C98.3651 26.516 98.8051 27.108 99.1651 27.764C99.5251 28.42 99.7971 29.132 99.9811 29.9C100.173 30.668 100.269 31.476 100.269 32.324ZM96.9691 32.324C96.9691 31.372 96.8411 30.52 96.5851 29.768C96.3291 29.008 95.9651 28.364 95.4931 27.836C95.0211 27.308 94.4451 26.904 93.7651 26.624C93.0931 26.344 92.3331 26.204 91.4851 26.204C90.6371 26.204 89.8731 26.344 89.1931 26.624C88.5211 26.904 87.9451 27.308 87.4651 27.836C86.9931 28.364 86.6291 29.008 86.3731 29.768C86.1171 30.52 85.9891 31.372 85.9891 32.324C85.9891 33.276 86.1171 34.132 86.3731 34.892C86.6291 35.644 86.9931 36.284 87.4651 36.812C87.9451 37.332 88.5211 37.732 89.1931 38.012C89.8731 38.292 90.6371 38.432 91.4851 38.432C92.3331 38.432 93.0931 38.292 93.7651 38.012C94.4451 37.732 95.0211 37.332 95.4931 36.812C95.9651 36.284 96.3291 35.644 96.5851 34.892C96.8411 34.132 96.9691 33.276 96.9691 32.324ZM108.348 31.904C108.956 31.904 109.484 31.828 109.932 31.676C110.388 31.524 110.76 31.316 111.048 31.052C111.344 30.78 111.564 30.46 111.708 30.092C111.852 29.724 111.924 29.32 111.924 28.88C111.924 28 111.632 27.324 111.048 26.852C110.472 26.38 109.588 26.144 108.396 26.144H106.332V31.904H108.348ZM116.652 41H113.736C113.184 41 112.784 40.784 112.536 40.352L108.888 34.796C108.752 34.588 108.6 34.44 108.432 34.352C108.272 34.264 108.032 34.22 107.712 34.22H106.332V41H103.104V23.648H108.396C109.572 23.648 110.58 23.772 111.42 24.02C112.268 24.26 112.96 24.6 113.496 25.04C114.04 25.48 114.44 26.008 114.696 26.624C114.952 27.232 115.08 27.904 115.08 28.64C115.08 29.224 114.992 29.776 114.816 30.296C114.648 30.816 114.4 31.288 114.072 31.712C113.752 32.136 113.352 32.508 112.872 32.828C112.4 33.148 111.86 33.4 111.252 33.584C111.46 33.704 111.652 33.848 111.828 34.016C112.004 34.176 112.164 34.368 112.308 34.592L116.652 41ZM121.766 41H118.526V23.648H121.766V41ZM128.891 26.216V31.028H134.963V33.512H128.891V38.42H136.595V41H125.651V23.648H136.595V26.216H128.891ZM148.695 26.804C148.599 26.972 148.495 27.096 148.383 27.176C148.279 27.248 148.147 27.284 147.987 27.284C147.819 27.284 147.635 27.224 147.435 27.104C147.243 26.976 147.011 26.836 146.739 26.684C146.467 26.532 146.147 26.396 145.779 26.276C145.419 26.148 144.991 26.084 144.495 26.084C144.047 26.084 143.655 26.14 143.319 26.252C142.983 26.356 142.699 26.504 142.467 26.696C142.243 26.888 142.075 27.12 141.963 27.392C141.851 27.656 141.795 27.948 141.795 28.268C141.795 28.676 141.907 29.016 142.131 29.288C142.363 29.56 142.667 29.792 143.043 29.984C143.419 30.176 143.847 30.348 144.327 30.5C144.807 30.652 145.299 30.816 145.803 30.992C146.307 31.16 146.799 31.36 147.279 31.592C147.759 31.816 148.187 32.104 148.563 32.456C148.939 32.8 149.239 33.224 149.463 33.728C149.695 34.232 149.811 34.844 149.811 35.564C149.811 36.348 149.675 37.084 149.403 37.772C149.139 38.452 148.747 39.048 148.227 39.56C147.715 40.064 147.087 40.464 146.343 40.76C145.599 41.048 144.747 41.192 143.787 41.192C143.235 41.192 142.691 41.136 142.155 41.024C141.619 40.92 141.103 40.768 140.607 40.568C140.119 40.368 139.659 40.128 139.227 39.848C138.795 39.568 138.411 39.256 138.075 38.912L139.023 37.364C139.103 37.252 139.207 37.16 139.335 37.088C139.463 37.008 139.599 36.968 139.743 36.968C139.943 36.968 140.159 37.052 140.391 37.22C140.623 37.38 140.899 37.56 141.219 37.76C141.539 37.96 141.911 38.144 142.335 38.312C142.767 38.472 143.283 38.552 143.883 38.552C144.803 38.552 145.515 38.336 146.019 37.904C146.523 37.464 146.775 36.836 146.775 36.02C146.775 35.564 146.659 35.192 146.427 34.904C146.203 34.616 145.903 34.376 145.527 34.184C145.151 33.984 144.723 33.816 144.243 33.68C143.763 33.544 143.275 33.396 142.779 33.236C142.283 33.076 141.795 32.884 141.315 32.66C140.835 32.436 140.407 32.144 140.031 31.784C139.655 31.424 139.351 30.976 139.119 30.44C138.895 29.896 138.783 29.228 138.783 28.436C138.783 27.804 138.907 27.188 139.155 26.588C139.411 25.988 139.779 25.456 140.259 24.992C140.739 24.528 141.331 24.156 142.035 23.876C142.739 23.596 143.547 23.456 144.459 23.456C145.483 23.456 146.427 23.616 147.291 23.936C148.155 24.256 148.891 24.704 149.499 25.28L148.695 26.804Z" fill="#F16D7F"/>
</svg>
